<?xml version="1.0" encoding="UTF-8"?>
<svg width="1599px" height="900px" viewBox="0 0 1599 900" version="1.1" xmlns="http://www.w3.org/2000/svg" xmlns:xlink="http://www.w3.org/1999/xlink">
    <!-- Generator: Sketch 43.2 (39069) - http://www.bohemiancoding.com/sketch -->
    <title>LW002</title>
    <desc>Created with Sketch.</desc>
    <defs>
        <polygon id="path-1" points="582.90053 0 0.191826152 0 0.191826152 899.159724 1165.60923 899.159724 1165.60923 0"></polygon>
        <polygon id="path-3" points="0.191826152 899.159724 0.191826152 0 1598.55127 0 1598.55127 899.159724"></polygon>
        <polygon id="path-5" points="1229.88635 143.844871 1229.88635 287.608802 0.731503963 287.608802 0.731503963 0.0809405633 1229.88635 0.0809405633 1229.88635 143.844871"></polygon>
    </defs>
    <g id="Assets" stroke="none" stroke-width="1" fill="none" fill-rule="evenodd" opacity="0.25">
        <g id="LW002">
            <g id="Group-14">
                <mask id="mask-2" fill="white">
                    <use xlink:href="#path-1"></use>
                </mask>
                <g id="Clip-2"></g>
                <polyline id="Fill-1" fill="#D82317" mask="url(#mask-2)" points="0 0 652.666103 0 290.923542 82.3045617 0 0"></polyline>
                <polyline id="Fill-3" fill="#8C4F76" mask="url(#mask-2)" points="652.666103 0 1165.60923 0 983.783618 254.980761 652.666103 0"></polyline>
                <polyline id="Fill-4" fill="#0A67AA" mask="url(#mask-2)" points="0 448.635555 225.849717 103.283157 0 0 0 448.635555"></polyline>
                <polyline id="Fill-5" fill="#845599" mask="url(#mask-2)" points="225.849717 103.283157 283.269679 359.876733 0 448.635555 225.849717 103.283157"></polyline>
                <polyline id="Fill-6" fill="#C4718E" mask="url(#mask-2)" points="225.849717 103.283157 474.664222 290.48369 283.269679 359.876733 225.849717 103.283157"></polyline>
                <polyline id="Fill-7" fill="#343E60" mask="url(#mask-2)" points="0 448.635555 271.785687 553.534525 124.408851 681.024906 0 448.635555"></polyline>
                <polyline id="Fill-8" fill="#519A8D" mask="url(#mask-2)" points="0 448.635555 0 899.339592 124.408851 681.024906 0 448.635555"></polyline>
                <polyline id="Fill-9" fill="#A35193" mask="url(#mask-2)" points="283.269679 359.876733 271.785687 553.534525 0 448.635555 283.269679 359.876733"></polyline>
                <polyline id="Fill-10" fill="#C11927" mask="url(#mask-2)" points="124.408851 681.024906 271.785687 752.030765 0 899.339592 124.408851 681.024906"></polyline>
                <polyline id="Fill-11" fill="#678E80" mask="url(#mask-2)" points="271.785687 553.534525 271.785687 752.030765 124.408851 681.024906 271.785687 553.534525"></polyline>
                <polyline id="Fill-12" fill="#D31279" mask="url(#mask-2)" points="271.785687 752.030765 369.396424 899.339592 0 899.339592 271.785687 752.030765"></polyline>
                <polyline id="Fill-13" fill="#714691" mask="url(#mask-2)" points="271.785687 752.030765 526.342187 848.859661 631.609986 868.22544 369.396424 899.339592 271.785687 752.030765"></polyline>
            </g>
            <polyline id="Fill-15" fill="#A54F92" points="271.785687 752.030765 422.989454 673.989073 529.264339 849.396267 271.785687 752.030765"></polyline>
            <polyline id="Fill-16" fill="#653F8E" points="290.923542 82.3045617 474.664222 132.331825 652.666103 0 290.923542 82.3045617"></polyline>
            <polyline id="Fill-17" fill="#497DB8" points="474.664222 132.331825 537.305052 190.429163 652.666103 0 474.664222 132.331825"></polyline>
            <polyline id="Fill-18" fill="#85243B" points="537.305052 190.429163 983.783618 254.980761 652.666103 0 537.305052 190.429163"></polyline>
            <polyline id="Fill-19" fill="#CB171D" points="1165.60923 0 1215.37213 159.764681 983.783618 254.980761 1165.60923 0"></polyline>
            <polyline id="Fill-20" fill="#CC122C" points="983.783618 254.980761 909.137668 374.401068 537.305052 190.429163 983.783618 254.980761"></polyline>
            <polyline id="Fill-21" fill="#B11552" points="909.137668 374.401068 1127.33032 246.910687 983.783618 254.980761 909.137668 374.401068"></polyline>
            <polyline id="Fill-22" fill="#C11A26" points="1127.33032 246.910687 1215.37213 159.764681 983.783618 254.980761 1127.33032 246.910687"></polyline>
            <polyline id="Fill-23" fill="#BD1830" points="1127.33032 246.910687 1374.23296 385.699771 909.137668 374.401068 1127.33032 246.910687"></polyline>
            <polyline id="Fill-24" fill="#B11454" points="652.666103 611.631863 690.945012 427.656961 909.137668 374.401068 652.666103 611.631863"></polyline>
            <polyline id="Fill-25" fill="#6B8A7D" points="283.269679 359.876733 451.696237 619.698939 271.785687 553.534525 283.269679 359.876733"></polyline>
            <polyline id="Fill-26" fill="#4A9DB7" points="474.664222 290.48369 451.696237 619.698939 283.269679 359.876733 474.664222 290.48369"></polyline>
            <polyline id="Fill-27" fill="#A4175D" points="474.664222 290.48369 690.945012 427.656961 451.696237 619.698939 474.664222 290.48369"></polyline>
            <polyline id="Fill-28" fill="#85253C" points="451.696237 619.698939 652.666103 611.631863 690.945012 427.656961 451.696237 619.698939"></polyline>
            <g id="Group-34">
                <mask id="mask-4" fill="white">
                    <use xlink:href="#path-3"></use>
                </mask>
                <g id="Clip-30"></g>
                <polyline id="Fill-29" fill="#B40F5D" mask="url(#mask-4)" points="474.664222 290.48369 474.664222 132.331825 690.945012 427.656961 474.664222 290.48369"></polyline>
                <polyline id="Fill-31" fill="#7E4E95" mask="url(#mask-4)" points="474.664222 290.48369 474.664222 132.331825 0 0 225.849717 103.283157 474.664222 290.48369"></polyline>
                <polyline id="Fill-32" fill="#EA9D5B" mask="url(#mask-4)" points="1165.60923 0 1374.23296 66.1644138 1598.55127 0 1165.60923 0"></polyline>
                <polyline id="Fill-33" fill="#EB9D5A" mask="url(#mask-4)" points="1598.55127 899.339592 1492.89982 762.433126 1598.55127 385.699771 1598.55127 899.339592"></polyline>
            </g>
            <polyline id="Fill-35" fill="#C51720" points="909.137668 374.401068 1027.80452 762.433126 652.666103 611.631863 909.137668 374.401068"></polyline>
            <polyline id="Fill-36" fill="#756491" points="422.989454 673.989073 652.666103 611.631863 529.264339 849.396267 422.989454 673.989073"></polyline>
            <polyline id="Fill-37" fill="#B4476A" points="422.989454 673.989073 451.696237 619.698939 652.666103 611.631863 422.989454 673.989073"></polyline>
            <polyline id="Fill-38" fill="#A76E88" points="271.785687 553.534525 271.785687 752.030765 422.989454 673.989073 451.696237 619.698939 271.785687 553.534525"></polyline>
            <polygon id="Fill-39" fill="#B31D28" points="631.609986 868.22544 529.264339 849.396267 652.666103 611.631863"></polygon>
            <polyline id="Fill-40" fill="#DA3518" points="652.666103 611.631863 966.55763 842.4054 631.609986 868.22544 652.666103 611.631863"></polyline>
            <polyline id="Fill-41" fill="#C31822" points="909.137668 374.401068 1180.92335 629.381829 1027.80452 762.433126 909.137668 374.401068"></polyline>
            <polyline id="Fill-42" fill="#DA3918" points="1374.23296 385.699771 1180.92335 629.381829 909.137668 374.401068 1374.23296 385.699771"></polyline>
            <polyline id="Fill-43" fill="#DB4120" points="1180.92335 629.381829 1307.24407 731.253022 1152.21337 840.789587 1027.80452 762.433126 1180.92335 629.381829"></polyline>
            <g id="Group-51" transform="translate(368.664920, 611.550923)">
                <mask id="mask-6" fill="white">
                    <use xlink:href="#path-5"></use>
                </mask>
                <g id="Clip-45"></g>
                <polyline id="Fill-44" fill="#B31A3E" mask="url(#mask-6)" points="659.139603 150.882203 597.89271 230.854478 284.001183 0.0809405633 659.139603 150.882203"></polyline>
                <polyline id="Fill-46" fill="#882046" mask="url(#mask-6)" points="0.731503963 287.788669 599.804577 287.788669 262.945065 256.674517 0.731503963 287.788669"></polyline>
                <polyline id="Fill-47" fill="#BF1A22" mask="url(#mask-6)" points="597.89271 230.854478 580.666721 287.788669 262.945065 256.674517 597.89271 230.854478"></polyline>
                <polyline id="Fill-48" fill="#AE1D30" mask="url(#mask-6)" points="580.666721 287.788669 783.548454 229.238664 659.139603 150.882203 597.89271 230.854478 580.666721 287.788669"></polyline>
                <polyline id="Fill-49" fill="#EA9A59" mask="url(#mask-6)" points="580.666721 287.788669 783.548454 229.238664 1229.88635 287.788669 580.666721 287.788669"></polyline>
                <polyline id="Fill-50" fill="#CC161C" mask="url(#mask-6)" points="783.548454 229.238664 1124.2349 150.882203 1229.88635 287.788669 783.548454 229.238664"></polyline>
            </g>
            <polyline id="Fill-52" fill="#C23B1E" points="1307.24407 731.253022 1152.21337 840.789587 1492.89982 762.433126 1307.24407 731.253022"></polyline>
            <polyline id="Fill-53" fill="#F37F4C" points="1307.24407 731.253022 1454.62091 681.024906 1492.89982 762.433126 1307.24407 731.253022"></polyline>
            <polyline id="Fill-54" fill="#E0622A" points="1374.23296 385.699771 1598.55127 385.699771 1492.89982 762.433126 1454.62091 681.024906 1374.23296 385.699771"></polyline>
            <polyline id="Fill-55" fill="#AF1D31" points="1127.33032 246.910687 1334.03899 254.980761 1374.23296 385.699771 1127.33032 246.910687"></polyline>
            <polyline id="Fill-56" fill="#BA1A2D" points="1334.03899 254.980761 1598.55127 385.699771 1374.23296 385.699771 1334.03899 254.980761"></polyline>
            <polyline id="Fill-57" fill="#A35293" points="225.849717 103.283157 474.664222 132.331825 474.664222 290.48369 225.849717 103.283157"></polyline>
            <polyline id="Fill-58" fill="#D61E16" points="1334.03899 254.980761 1351.26498 132.331825 1598.55127 385.699771 1334.03899 254.980761"></polyline>
            <polyline id="Fill-59" fill="#EA9C5B" points="1351.26498 132.331825 1598.55127 0 1598.55127 385.699771 1351.26498 132.331825"></polyline>
            <polyline id="Fill-60" fill="#DE5728" points="1215.37213 159.764681 1374.23296 66.1644138 1165.60923 0 1215.37213 159.764681"></polyline>
            <polyline id="Fill-61" fill="#DA3A18" points="1351.26498 132.331825 1215.37213 159.764681 1127.33032 246.910687 1334.03899 254.980761 1351.26498 132.331825"></polyline>
            <polyline id="Fill-62" fill="#CA1330" points="1180.92335 629.381829 1454.62091 681.024906 1307.24407 731.253022 1180.92335 629.381829"></polyline>
            <polyline id="Fill-63" fill="#E26C34" points="1180.92335 629.381829 1374.23296 385.699771 1454.62091 681.024906 1180.92335 629.381829"></polyline>
            <polyline id="Fill-64" fill="#DE5F29" points="1215.37213 159.764681 1374.23296 66.1644138 1598.55127 0 1351.26498 132.331825 1215.37213 159.764681"></polyline>
            <polyline id="Fill-65" fill="#75263A" points="474.664222 132.331825 537.305052 190.429163 909.137668 374.401068 690.945012 427.656961 474.664222 132.331825"></polyline>
        </g>
    </g>
</svg>