{
    "asset" : {
        "generator" : "Khronos glTF Blender I/O v0.9.35",
        "version" : "2.0"
    },
    "scene" : 0,
    "scenes" : [
        {
            "name" : "Scene",
            "nodes" : [
                0
            ]
        }
    ],
    "nodes" : [
        {
            "mesh" : 0,
            "name" : "WallBoard.002",
            "translation" : [
                0,
                -0.6402246952056885,
                -0.029117673635482788
            ]
        }
    ],
    "materials" : [
        {
            "doubleSided" : true,
            "name" : "atlas_room",
            "pbrMetallicRoughness" : {
                "baseColorTexture" : {
                    "index" : 0,
                    "texCoord" : 0
                },
                "metallicFactor" : 0,
                "roughnessFactor" : 0.5
            }
        }
    ],
    "meshes" : [
        {
            "name" : "Art_com_60X60_Basel_Black_and_Silver002.005",
            "primitives" : [
                {
                    "attributes" : {
                        "POSITION" : 0,
                        "NORMAL" : 1,
                        "TEXCOORD_0" : 2,
                        "TEXCOORD_1" : 3
                    },
                    "indices" : 4,
                    "material" : 0
                }
            ]
        }
    ],
    "textures" : [
        {
            "source" : 0
        }
    ],
    "images" : [
        {
            "mimeType" : "image/jpeg",
            "name" : "atlas_room",
            "uri" : "atlas_room.jpg"
        }
    ],
    "accessors" : [
        {
            "bufferView" : 0,
            "componentType" : 5126,
            "count" : 442,
            "max" : [
                1.3979134559631348,
                3.0190556049346924,
                -2.2147340774536133
            ],
            "min" : [
                -1.1025495529174805,
                1.3633347749710083,
                -2.275057077407837
            ],
            "type" : "VEC3"
        },
        {
            "bufferView" : 1,
            "componentType" : 5126,
            "count" : 442,
            "type" : "VEC3"
        },
        {
            "bufferView" : 2,
            "componentType" : 5126,
            "count" : 442,
            "type" : "VEC2"
        },
        {
            "bufferView" : 3,
            "componentType" : 5126,
            "count" : 442,
            "type" : "VEC2"
        },
        {
            "bufferView" : 4,
            "componentType" : 5123,
            "count" : 714,
            "type" : "SCALAR"
        }
    ],
    "bufferViews" : [
        {
            "buffer" : 0,
            "byteLength" : 5304,
            "byteOffset" : 0
        },
        {
            "buffer" : 0,
            "byteLength" : 5304,
            "byteOffset" : 5304
        },
        {
            "buffer" : 0,
            "byteLength" : 3536,
            "byteOffset" : 10608
        },
        {
            "buffer" : 0,
            "byteLength" : 3536,
            "byteOffset" : 14144
        },
        {
            "buffer" : 0,
            "byteLength" : 1428,
            "byteOffset" : 17680
        }
    ],
    "buffers" : [
        {
            "byteLength" : 19108,
            "uri" : "board.bin"
        }
    ]
}
