{
    "asset" : {
        "generator" : "Khronos glTF Blender I/O v0.9.35",
        "version" : "2.0"
    },
    "scene" : 0,
    "scenes" : [
        {
            "name" : "Scene",
            "nodes" : [
                0
            ]
        }
    ],
    "nodes" : [
        {
            "mesh" : 0,
            "name" : "WallBoard",
            "translation" : [
                0,
                -0.6402246952056885,
                -0.029117673635482788
            ]
        }
    ],
    "materials" : [
        {
            "doubleSided" : true,
            "name" : "Wooden_table",
            "pbrMetallicRoughness" : {
                "baseColorTexture" : {
                    "index" : 0,
                    "texCoord" : 0
                },
                "metallicFactor" : 0,
                "roughnessFactor" : 0.3891402781009674
            }
        },
        {
            "doubleSided" : true,
            "name" : "atlas_room",
            "pbrMetallicRoughness" : {
                "baseColorTexture" : {
                    "index" : 1,
                    "texCoord" : 0
                },
                "metallicFactor" : 0,
                "roughnessFactor" : 0.5
            }
        },
        {
            "doubleSided" : true,
            "name" : "carpet_floor",
            "pbrMetallicRoughness" : {
                "baseColorTexture" : {
                    "index" : 2,
                    "texCoord" : 0
                },
                "metallicFactor" : 0,
                "roughnessFactor" : 0
            }
        },
        {
            "doubleSided" : true,
            "name" : "walls",
            "pbrMetallicRoughness" : {
                "baseColorTexture" : {
                    "index" : 3,
                    "texCoord" : 0
                },
                "metallicFactor" : 0,
                "roughnessFactor" : 0.5
            }
        }
    ],
    "meshes" : [
        {
            "name" : "Art_com_60X60_Basel_Black_and_Silver002.001",
            "primitives" : [
                {
                    "attributes" : {
                        "POSITION" : 0,
                        "NORMAL" : 1,
                        "TEXCOORD_0" : 2,
                        "TEXCOORD_1" : 3
                    },
                    "indices" : 4,
                    "material" : 0
                },
                {
                    "attributes" : {
                        "POSITION" : 5,
                        "NORMAL" : 6,
                        "TEXCOORD_0" : 7,
                        "TEXCOORD_1" : 8
                    },
                    "indices" : 9,
                    "material" : 1
                },
                {
                    "attributes" : {
                        "POSITION" : 10,
                        "NORMAL" : 11,
                        "TEXCOORD_0" : 12,
                        "TEXCOORD_1" : 13
                    },
                    "indices" : 14,
                    "material" : 2
                },
                {
                    "attributes" : {
                        "POSITION" : 15,
                        "NORMAL" : 16,
                        "TEXCOORD_0" : 17,
                        "TEXCOORD_1" : 18
                    },
                    "indices" : 19,
                    "material" : 3
                }
            ]
        }
    ],
    "textures" : [
        {
            "source" : 0
        },
        {
            "source" : 1
        },
        {
            "source" : 2
        },
        {
            "source" : 3
        }
    ],
    "images" : [
        {
            "mimeType" : "image/jpeg",
            "name" : "WoodFine",
            "uri" : "WoodFine.jpg"
        },
        {
            "mimeType" : "image/jpeg",
            "name" : "atlas_room",
            "uri" : "atlas_room.jpg"
        },
        {
            "mimeType" : "image/jpeg",
            "name" : "FabricFloor",
            "uri" : "FabricFloor.jpg"
        },
        {
            "mimeType" : "image/jpeg",
            "name" : "wallpaper",
            "uri" : "wallpaper.jpg"
        }
    ],
    "accessors" : [
        {
            "bufferView" : 0,
            "componentType" : 5126,
            "count" : 2085,
            "max" : [
                1.3619556427001953,
                2.396815299987793,
                1.7452044486999512
            ],
            "min" : [
                -1.3298745155334473,
                0.2652166485786438,
                -1.4281377792358398
            ],
            "type" : "VEC3"
        },
        {
            "bufferView" : 1,
            "componentType" : 5126,
            "count" : 2085,
            "type" : "VEC3"
        },
        {
            "bufferView" : 2,
            "componentType" : 5126,
            "count" : 2085,
            "type" : "VEC2"
        },
        {
            "bufferView" : 3,
            "componentType" : 5126,
            "count" : 2085,
            "type" : "VEC2"
        },
        {
            "bufferView" : 4,
            "componentType" : 5123,
            "count" : 7020,
            "type" : "SCALAR"
        },
        {
            "bufferView" : 5,
            "componentType" : 5126,
            "count" : 13525,
            "max" : [
                2.935584306716919,
                3.033050060272217,
                1.7570000886917114
            ],
            "min" : [
                -2.07474684715271,
                0.2655547857284546,
                -2.2892963886260986
            ],
            "type" : "VEC3"
        },
        {
            "bufferView" : 6,
            "componentType" : 5126,
            "count" : 13525,
            "type" : "VEC3"
        },
        {
            "bufferView" : 7,
            "componentType" : 5126,
            "count" : 13525,
            "type" : "VEC2"
        },
        {
            "bufferView" : 8,
            "componentType" : 5126,
            "count" : 13525,
            "type" : "VEC2"
        },
        {
            "bufferView" : 9,
            "componentType" : 5123,
            "count" : 39807,
            "type" : "SCALAR"
        },
        {
            "bufferView" : 10,
            "componentType" : 5126,
            "count" : 13,
            "max" : [
                2.3746795654296875,
                0.2655550241470337,
                1.7334251403808594
            ],
            "min" : [
                -2.0747461318969727,
                0.2655550241470337,
                -2.2892963886260986
            ],
            "type" : "VEC3"
        },
        {
            "bufferView" : 11,
            "componentType" : 5126,
            "count" : 13,
            "type" : "VEC3"
        },
        {
            "bufferView" : 12,
            "componentType" : 5126,
            "count" : 13,
            "type" : "VEC2"
        },
        {
            "bufferView" : 13,
            "componentType" : 5126,
            "count" : 13,
            "type" : "VEC2"
        },
        {
            "bufferView" : 14,
            "componentType" : 5123,
            "count" : 24,
            "type" : "SCALAR"
        },
        {
            "bufferView" : 15,
            "componentType" : 5126,
            "count" : 150,
            "max" : [
                2.374680995941162,
                3.0296473503112793,
                1.7334251403808594
            ],
            "min" : [
                -2.0747461318969727,
                0.2655547857284546,
                -2.2892963886260986
            ],
            "type" : "VEC3"
        },
        {
            "bufferView" : 16,
            "componentType" : 5126,
            "count" : 150,
            "type" : "VEC3"
        },
        {
            "bufferView" : 17,
            "componentType" : 5126,
            "count" : 150,
            "type" : "VEC2"
        },
        {
            "bufferView" : 18,
            "componentType" : 5126,
            "count" : 150,
            "type" : "VEC2"
        },
        {
            "bufferView" : 19,
            "componentType" : 5123,
            "count" : 228,
            "type" : "SCALAR"
        }
    ],
    "bufferViews" : [
        {
            "buffer" : 0,
            "byteLength" : 25020,
            "byteOffset" : 0
        },
        {
            "buffer" : 0,
            "byteLength" : 25020,
            "byteOffset" : 25020
        },
        {
            "buffer" : 0,
            "byteLength" : 16680,
            "byteOffset" : 50040
        },
        {
            "buffer" : 0,
            "byteLength" : 16680,
            "byteOffset" : 66720
        },
        {
            "buffer" : 0,
            "byteLength" : 14040,
            "byteOffset" : 83400
        },
        {
            "buffer" : 0,
            "byteLength" : 162300,
            "byteOffset" : 97440
        },
        {
            "buffer" : 0,
            "byteLength" : 162300,
            "byteOffset" : 259740
        },
        {
            "buffer" : 0,
            "byteLength" : 108200,
            "byteOffset" : 422040
        },
        {
            "buffer" : 0,
            "byteLength" : 108200,
            "byteOffset" : 530240
        },
        {
            "buffer" : 0,
            "byteLength" : 79614,
            "byteOffset" : 638440
        },
        {
            "buffer" : 0,
            "byteLength" : 156,
            "byteOffset" : 718056
        },
        {
            "buffer" : 0,
            "byteLength" : 156,
            "byteOffset" : 718212
        },
        {
            "buffer" : 0,
            "byteLength" : 104,
            "byteOffset" : 718368
        },
        {
            "buffer" : 0,
            "byteLength" : 104,
            "byteOffset" : 718472
        },
        {
            "buffer" : 0,
            "byteLength" : 48,
            "byteOffset" : 718576
        },
        {
            "buffer" : 0,
            "byteLength" : 1800,
            "byteOffset" : 718624
        },
        {
            "buffer" : 0,
            "byteLength" : 1800,
            "byteOffset" : 720424
        },
        {
            "buffer" : 0,
            "byteLength" : 1200,
            "byteOffset" : 722224
        },
        {
            "buffer" : 0,
            "byteLength" : 1200,
            "byteOffset" : 723424
        },
        {
            "buffer" : 0,
            "byteLength" : 456,
            "byteOffset" : 724624
        }
    ],
    "buffers" : [
        {
            "byteLength" : 725080,
            "uri" : "meeting-room.bin"
        }
    ]
}
